# File created by Blade
# Date/Time:  Tue Apr 07 20:29:34 2015
# Frame Rate: 120.000 fps
#------------------------------------------------------
:FULLY-SPECIFIED
:DEGREES
2296
root 3.676535 32.967763 -5.186887 4.492050 -18.779643 -20.278103
Spine 4.674625 1.897344 14.524985
Head 10.726355 -18.512179 10.396094
LeftShoulder -14.713868 36.222976 24.594797
LeftArm 55.998035 -51.430019 -55.825619
LeftForeArm 2.456486 0.000000 16.507157
LeftHand 9.840256 -0.000000 0.922563
LeftHandThumb1 -26.253704 0.000000 33.147579
RightShoulder -5.072876 0.685050 -16.105345
RightArm 10.266967 14.325704 72.451203
RightForeArm 3.899591 0.000000 64.514597
RightHand 5.649109 -0.000000 6.717073
RightHandThumb1 -24.326973 -0.000000 -32.862282
LeftUpLeg -6.630849 -1.122456 12.082086
LeftLeg 19.592496 -0.000000 -0.000000
LeftFoot -16.713660 22.341917 -8.419195
LeftToeBase -14.503931 -0.000000 0.000000
RightUpLeg -88.676404 -23.009662 6.136800
RightLeg 87.357650 -0.000000 -0.000000
RightFoot 42.791436 -6.814533 -0.152607
RightToeBase 37.658976 -0.000000 -0.000000
2297
root 3.738588 32.925457 -5.172911 4.286852 -19.009448 -19.701116
Spine 4.983519 2.061433 14.214373
Head 10.566127 -18.222550 10.242464
LeftShoulder -14.723381 36.098829 24.769563
LeftArm 56.181877 -51.941311 -55.615117
LeftForeArm 2.340985 -0.000000 16.649492
LeftHand 10.065712 -0.000000 0.871082
LeftHandThumb1 -26.253704 0.000000 33.147579
RightShoulder -4.862294 1.329444 -16.424078
RightArm 10.957477 14.181941 72.898679
RightForeArm 3.146943 -0.000000 64.382263
RightHand 5.645805 -0.000000 7.292855
RightHandThumb1 -24.326973 -0.000000 -32.862282
LeftUpLeg -6.823425 -0.325694 11.445484
LeftLeg 20.038418 -0.000000 -0.000000
LeftFoot -16.289421 21.868596 -7.866673
LeftToeBase -14.375147 -0.000000 0.000000
RightUpLeg -88.570435 -23.148960 6.012031
RightLeg 87.331971 -0.000000 -0.000000
RightFoot 42.816152 -6.821433 -0.329101
RightToeBase 35.256050 -0.000000 -0.000000
2298
root 3.790476 32.888550 -5.156250 4.059176 -19.098448 -19.186186
Spine 5.288233 2.106546 13.943690
Head 10.425905 -17.942445 10.141757
LeftShoulder -14.755369 36.094259 24.946774
LeftArm 56.585256 -52.461407 -55.557086
LeftForeArm 2.234024 0.000000 16.715586
LeftHand 10.221214 -0.000000 0.922936
LeftHandThumb1 -26.253704 0.000000 33.147579
RightShoulder -4.690264 1.869555 -16.696392
RightArm 11.739763 13.913203 73.343991
RightForeArm 2.461941 -0.000000 64.189352
RightHand 5.555602 0.000000 7.661891
RightHandThumb1 -24.326973 -0.000000 -32.862282
LeftUpLeg -7.009340 0.291359 10.888292
LeftLeg 20.473130 -0.000000 -0.000000
LeftFoot -15.806337 21.355479 -7.261148
LeftToeBase -14.556099 -0.000000 0.000000
RightUpLeg -88.364113 -23.362384 5.815233
RightLeg 87.338858 -0.000000 -0.000000
RightFoot 42.808992 -6.870173 -0.426585
RightToeBase 34.556704 -0.000000 -0.000000
2299
root 3.840575 32.857693 -5.135155 3.774535 -19.033007 -18.773588
Spine 5.642127 1.995435 13.817127
Head 10.308037 -17.655603 9.975068
LeftShoulder -14.705866 35.869047 25.221811
LeftArm 56.738299 -52.820601 -55.370079
LeftForeArm 2.274475 0.000000 16.742184
LeftHand 10.233653 -0.000000 0.834930
LeftHandThumb1 -26.253704 0.000000 33.147579
RightShoulder -4.511971 2.420307 -16.955472
RightArm 12.439867 13.304216 73.518615
RightForeArm 2.185762 -0.000000 63.961578
RightHand 5.557058 -0.000000 7.708568
RightHandThumb1 -24.326973 -0.000000 -32.862282
LeftUpLeg -7.132202 0.597441 10.423955
LeftLeg 20.887647 -0.000000 -0.000000
LeftFoot -15.282229 21.114376 -6.522497
LeftToeBase -15.376284 -0.000000 0.000000
RightUpLeg -88.046691 -23.748473 5.645580
RightLeg 87.367810 -0.000000 -0.000000
RightFoot 42.710226 -6.796469 -0.464085
RightToeBase 36.250580 -0.000000 -0.000000
2300
root 3.883942 32.829079 -5.123787 3.637379 -18.909340 -18.317498
Spine 5.783690 1.909194 13.589707
Head 10.272418 -17.402670 9.852404
LeftShoulder -14.575108 35.680520 25.578480
LeftArm 56.800455 -53.166928 -55.057901
LeftForeArm 2.189133 -0.000000 16.710033
LeftHand 10.253349 0.000000 0.800301
LeftHandThumb1 -26.253704 0.000000 33.147579
RightShoulder -4.370769 2.892876 -17.173697
RightArm 13.180919 12.626388 73.747302
RightForeArm 2.093545 -0.000000 63.605533
RightHand 5.542654 -0.000000 7.771814
RightHandThumb1 -24.326973 -0.000000 -32.862282
LeftUpLeg -7.436894 0.742042 9.923300
LeftLeg 21.296518 -0.000000 -0.000000
LeftFoot -14.857338 21.011364 -5.891425
LeftToeBase -15.470638 -0.000000 0.000000
RightUpLeg -87.896599 -24.107576 5.428993
RightLeg 87.401261 -0.000000 -0.000000
RightFoot 42.648264 -6.720656 -0.525266
RightToeBase 36.526311 -0.000000 -0.000000
